<?xml version="1.0" standalone="no"?>
<!DOCTYPE svg PUBLIC "-//W3C//DTD SVG 20010904//EN"
 "http://www.w3.org/TR/2001/REC-SVG-20010904/DTD/svg10.dtd">
<svg version="1.0" xmlns="http://www.w3.org/2000/svg"
 width="1280.000000pt" height="1280.000000pt" viewBox="0 0 1280.000000 1280.000000"
 preserveAspectRatio="xMidYMid meet">
<metadata>
Created by potrace 1.16, written by Peter Selinger 2001-2019
</metadata>
<g transform="translate(0.000000,1280.000000) scale(0.100000,-0.100000)"
fill="#000000" stroke="none">
<path d="M5813 11795 c-79 -17 -183 -72 -253 -133 -48 -42 -4315 -4577 -4448
-4727 -58 -65 -132 -207 -157 -300 -26 -94 -31 -294 -10 -396 21 -106 65 -213
124 -301 46 -68 4339 -4659 4475 -4784 131 -122 293 -179 440 -155 192 32 331
158 394 361 15 51 17 221 22 2235 l5 2179 2146 -2289 c1180 -1260 2172 -2314
2205 -2343 77 -69 192 -126 285 -142 199 -34 408 74 494 255 71 150 65 -326
65 5145 0 4480 -1 4938 -16 5003 -49 219 -194 364 -400 398 -143 23 -305 -32
-432 -146 -34 -32 -1026 -1083 -2205 -2337 l-2142 -2280 -5 2174 c-5 1966 -7
2178 -22 2225 -61 197 -188 321 -365 358 -82 18 -119 18 -200 0z"/>
</g>
</svg>
