<?xml version="1.0" encoding="utf-8"?><!-- Uploaded to: SVG Repo, www.svgrepo.com, Generator: SVG Repo Mixer Tools -->
<svg width="800px" height="800px" viewBox="1 1 18 22" fill="none" xmlns="http://www.w3.org/2000/svg">
<path d="M12 10V17M8 10V17M16 6V16.2C16 17.8802 16 18.7202 15.673 19.362C15.3854 19.9265 14.9265 20.3854 14.362 20.673C13.7202 21 12.8802 21 11.2 21H8.8C7.11984 21 6.27976 21 5.63803 20.673C5.07354 20.3854 4.6146 19.9265 4.32698 19.362C4 18.7202 4 17.8802 4 16.2V6M2 6H18M14 6L13.7294 5.18807C13.4671 4.40125 13.3359 4.00784 13.0927 3.71698C12.8779 3.46013 12.6021 3.26132 12.2905 3.13878C11.9376 3 11.523 3 10.6936 3H9.30643C8.47705 3 8.06236 3 7.70951 3.13878C7.39792 3.26132 7.12208 3.46013 6.90729 3.71698C6.66405 4.00784 6.53292 4.40125 6.27064 5.18807L6 6" stroke="#000000" stroke-width="2" stroke-linecap="round" stroke-linejoin="round"/>
</svg>
